<?xml version="1.0" encoding="UTF-8"?><svg id="Layer_2" xmlns="http://www.w3.org/2000/svg" viewBox="0 0 1000 251.6301"><g id="Components"><g id="cd35d43b-993f-4367-a719-3198a55bfc10_10"><path d="M184.6892,208.407c-4.5591,6.5621-9.6166,11.5934-15.1616,15.1078-5.5519,3.5144-12.626,5.9237-21.2113,7.2073-8.5935,1.2904-19.6843,1.9288-33.2683,1.9288h-45.3372l20.5428-96.6462h.0343l2.9122-13.7007h-.0343l18.9743-89.2673h51.659c14.5244,0,25.3729,1.0502,32.5427,3.1643,7.1575,2.1073,11.81,6.1502,13.9384,12.122,2.1215,5.9717,2.7668,14.8195,1.9168,26.5365h11.2433l10.144-57.6376H49.078l-2.241,10.5432c9.6028,0,16.635.8237,21.0926,2.4573,4.4493,1.6405,7.0577,4.8048,7.8184,9.493.7607,4.6882.1964,11.4767-1.696,20.3794l-31.1512,146.5548c-1.9419,9.1361-4.2649,15.9315-6.9676,20.3794-2.7041,4.4548-6.595,7.324-11.6673,8.6144-5.0792,1.2904-12.4221,1.9288-22.0249,1.9288l-2.241,10.5432h187.6706l23.7303-65.3666h-11.2433c-5.7554,10.5432-10.9093,19.0958-15.4684,25.6579Z" style="fill:#fefaf1;"/><path d="M288.3547,94.3604c3.0132-1.517,7.9197-2.2857,14.722-2.2857l2.1652-10.1863h-74.1526l-2.1652,10.1863c5.1481,0,9.1142.6521,11.889,1.9357,2.7665,1.2904,4.9418,3.7478,6.5106,7.3789.996,2.3098,2.8947,11.5766,3.8656,15.3484h32.7125c-.1354-1.0056-1.2252-8.2819-1.3341-9.1982-.2522-2.1073-.1364-4.3312.3625-6.6788.5967-2.8074,2.4017-4.9696,5.4246-6.5003Z" style="fill:#fefaf1;"/><path d="M410.6769,81.8867h-61.5021l-2.1663,10.1914c6.3261,0,11.1263.5628,14.3868,1.7572,3.2605,1.1943,4.4797,3.7255,3.6281,7.7324-.5975,2.8108-1.4565,5.2013-2.5776,7.1695-1.1369,2.0386-1.9422,3.5144-2.3473,4.4273l-47.1059,79.4259-11.9374,21.4382h-2.109l-2.195-21.0864-10.5532-59.6195-30.0677-.0704.0035.0206-52.1157-.1318c-45.6436-.2814-40.1828-7.7324-28.9323-38.2363l-3.9555-.2111c-18.2396,39.4324-24.6681,39.7121-65.3952,40.5564l-1.7657,6.1142c18.7131-.4222,31.6182.1407,35.4822,5.6937,3.8807,5.4827-.3108,16.5184-7.9703,32.8961h4.0056c16.6224-42.8057,21.1312-38.8141,121.7614-40.1649l1.1205,6.5511,17.772,103.886h16.8684l84.2129-134.9528c5.4567-9.1378,10.356-15.3223,14.598-18.4146,4.3277-3.1643,9.8726-4.7808,16.6903-4.7808l2.1662-10.1914Z" style="fill:#fefaf1;"/><path d="M538.9452,154.6339c4.2956-24.6008,2.001-43.58-6.8713-56.9306-8.8846-13.3575-22.9229-20.0362-42.1354-20.0362-13.5909,0-26.6806,3.1643-39.2691,9.493-12.5871,6.3218-23.5811,15.8697-32.9735,28.6369-9.394,12.774-16.1775,28.9938-20.3619,48.68-3.9845,18.7458-4.0768,34.6155-.278,47.6161,3.7904,13.0074,10.6573,22.8436,20.6045,29.5224,9.9473,6.6787,21.9505,10.0147,36.0081,10.0147,9.1361,0,17.3727-1.2904,24.7152-3.8645,7.3426-2.574,13.9996-6.0884,19.9916-10.5432,5.9768-4.4479,11.5953-9.6646,16.8527-15.6364,5.252-5.9786,10.0985-12.2455,14.5409-18.8076l-5.6341-4.9147c-4.7924,4.9147-9.7336,9.4312-14.8261,13.5291-5.0855,4.0978-10.8892,7.4406-17.415,10.0147-6.5203,2.5809-14.5839,3.8645-24.1936,3.8645s-18.062-2.6358-25.3774-7.9074c-7.3154-5.2716-12.4053-13.2957-15.2696-24.0723-2.7559-10.3699-2.516-23.3018.5611-38.6585h111.331ZM447.7067,107.7179c9.0544-10.6599,20.3812-15.9933,33.972-15.9933,8.436,0,14.8422,2.3475,19.2424,7.0288,4.3918,4.6882,7.1824,10.8384,8.3786,18.4506,1.1948,7.6191.9814,15.7599-.6211,24.4292h-77.9176c4.0905-14.0816,9.7171-25.4194,16.9456-33.9154Z" style="fill:#fefaf1;"/><path d="M682.4734,111.8844l9.9832-35.8219c-1.5907-.9043-5.8858-.8769-7.8773-1.0262-1.7041-.1287-3.4912-.012-5.2565.3003-13.0556,2.3012-24.0105,8.3639-34.2476,18.1452-5.8831,5.6217-12.7916,12.7741-20.7213,21.4365h-1.0571l7.6933-36.1943h-8.4291l-45.8211,10.5432-2.0907,9.8362c3.8401-.4668,7.5277-.7001,11.0421-.7001,6.3287,0,9.6791,1.5788,10.0636,4.7431.3776,3.1643-.1021,7.9074-1.4472,14.2361l-20.5428,96.6462c-1.3948,6.5621-2.9811,11.5385-4.7535,14.9362-1.7793,3.3977-4.6189,5.7452-8.5229,7.0288-3.9123,1.2904-9.7245,1.9288-17.4535,1.9288l-2.1666,10.1931h87.8601l2.1666-10.1931c-8.6763,0-15.2873-.5766-19.8343-1.7572-4.5568-1.1669-7.3773-3.6242-8.4531-7.3789-1.0787-3.7409-.8406-9.2528.703-16.515,5.4151-25.476,8.7032-51.3759,16.3229-76.797,3.2923-10.9842,8.2265-14.8504,19.5756-19.1988,14.8801-5.7023,27.5123-4.9421,41.8913-4.3913.4511.0172.914-.0051,1.3728,0Z" style="fill:#fefaf1;"/><path d="M734.3319,228.2579c-.2798-3.6242.3004-8.8409,1.7449-15.6363L781.2709,0h-8.786l-49.0088,12.3004-2.0163,9.4862c4.5471-.4668,8.3514-.7001,11.399-.7001,4.4479,0,7.8753.7001,10.2669,2.1073,2.3916,1.4071,2.8217,5.7452,1.2782,13.0074l-37.4993,176.4204c-1.3948,6.562-2.8893,11.6552-4.4779,15.2863-1.5969,3.638-4.3062,6.212-8.1445,7.7358-3.8383,1.5238-9.6205,2.2789-17.3563,2.2789l-2.1666,10.1931h80.8314l2.1666-10.1931c-8.436,0-14.3825-.7001-17.8243-2.1073-3.4555-1.4071-5.3171-3.9194-5.6009-7.5574Z" style="fill:#fefaf1;"/><path d="M864.9012,11.6003c-6.0953,0-11.365,1.9288-15.8176,5.7933-4.454,3.8713-7.2494,8.4977-8.3947,13.886-1.1453,5.3883-.2679,10.0764,2.6336,14.0576,2.9001,3.988,7.2833,5.9717,13.1384,5.9717,6.0885,0,11.3699-1.9837,15.8556-5.9717,4.4773-3.9812,7.2928-8.6693,8.4381-14.0576,1.1453-5.3883.3097-10.0147-2.4985-13.886-2.8165-3.8645-7.2663-5.7933-13.3547-5.7933Z" style="fill:#fefaf1;"/><path d="M864.6913,78.7241h-9.1361l-46.3708,9.8362-2.1666,10.1932c3.6136-.4668,6.5873-.7001,8.9349-.7001,5.148,0,8.8257.8786,11.0331,2.6358,2.2074,1.7572,2.5145,6.3836.9212,13.8792l-20.8418,98.0533c-1.3949,6.562-2.9024,11.717-4.5227,15.4647-1.6203,3.7478-4.2878,6.3836-8.0025,7.9074-3.7216,1.5238-9.567,2.2857-17.5293,2.2857l-2.0907,9.8362h79.0741l2.0907-9.8362c-7.7357,0-13.2689-.707-16.6009-2.1141-3.3334-1.4003-5.0706-3.9812-5.2075-7.7289-.1438-3.7478.5099-9.0194,1.9543-15.8148l28.4608-133.8975Z" style="fill:#fefaf1;"/><path d="M957.1545,98.4034h39.7087l3.1369-14.7578h-39.7087l10.6084-49.9087h-8.786c-9.5166,14.998-18.1938,26.8866-26.0331,35.6726-7.8461,8.786-16.4122,15.7599-25.709,20.908l-1.7187,8.0859h19.3292l-23.1573,108.9466c-3.3368,15.6981-3.049,27.0033.8769,33.9154,3.9206,6.9053,11.731,10.3648,23.448,10.3648,7.4956,0,13.8403-1.1738,19.0261-3.5144,5.1788-2.3406,10.1642-5.6766,14.9576-10.0147,4.7851-4.3312,10.0715-9.6646,15.8715-15.9933l-5.4838-5.6217c-5.494,4.9215-10.0769,8.5595-13.7372,10.8933-3.6565,2.3475-8.2976,3.5144-13.9261,3.5144-6.7955,0-10.7828-2.4573-11.9607-7.3789-1.1847-4.9216-.4486-13.584,2.1923-26.008l21.0651-99.1035Z" style="fill:#fefaf1;"/></g></g></svg>