<svg xmlns="http://www.w3.org/2000/svg" version="1.1" xmlns:xlink="http://www.w3.org/1999/xlink" width="1000" height="1000"><style>
    #light-icon {
      display: inline;
    }
    #dark-icon {
      display: none;
    }

    @media (prefers-color-scheme: dark) {
      #light-icon {
        display: none;
      }
      #dark-icon {
        display: inline;
      }
    }
  </style><g id="light-icon"><svg xmlns="http://www.w3.org/2000/svg" version="1.1" xmlns:xlink="http://www.w3.org/1999/xlink" width="1000" height="1000"><g><g transform="matrix(6.8493150684931505,0,0,6.8493150684931505,0,0)"><svg xmlns="http://www.w3.org/2000/svg" version="1.1" xmlns:xlink="http://www.w3.org/1999/xlink" width="146" height="146"><svg width="146" height="146" viewBox="0 0 146 146" fill="none" xmlns="http://www.w3.org/2000/svg">
<rect width="146" height="146" rx="8" fill="#020F15"></rect>
<path d="M91.5578 95.2542C90.2112 97.3877 88.7174 99.0236 87.0795 100.166C85.4396 101.309 83.3502 102.092 80.8143 102.51C78.276 102.929 75.0001 103.137 70.9878 103.137H57.5965L63.6642 71.7139H63.6744L64.5345 67.2593H64.5244L70.1289 38.2356H85.3875C89.6776 38.2356 92.8819 38.5771 94.9997 39.2645C97.1138 39.9496 98.488 41.2641 99.1167 43.2057C99.7433 45.1473 99.9339 48.024 99.6829 51.8336H103.004L106 33.0938H51.5021L50.8402 36.5217C53.6766 36.5217 55.7537 36.7895 57.0703 37.3206C58.3845 37.854 59.155 38.8828 59.3797 40.4071C59.6044 41.9314 59.4377 44.1386 58.8787 47.0331L49.6775 94.6828C49.104 97.6532 48.4178 99.8626 47.6195 101.309C46.8208 102.757 45.6715 103.69 44.1733 104.11C42.6731 104.529 40.5042 104.737 37.6678 104.737L37.0059 108.165H92.4384L99.4477 86.9119H96.1268C94.4268 90.3398 92.9045 93.1206 91.5578 95.2542Z" fill="#F1E2B7"></path>
<path d="M88.7219 58.3301C85.3989 68.2476 83.7866 70.6712 97.2673 70.7628L101.128 70.7736L100.863 73.073C82.7555 73.3377 81.1561 74.273 77.0251 85.9828H75.8417C78.1037 80.6589 79.343 77.0718 78.1978 75.2889C77.0565 73.4834 73.2441 73.2997 67.7168 73.4369L68.2371 71.4502C80.2667 71.1757 82.1672 71.0834 87.5546 58.2627L88.7219 58.3301Z" fill="#F1E2B7"></path>
</svg></svg></g></g></svg></g><g id="dark-icon"><svg xmlns="http://www.w3.org/2000/svg" version="1.1" xmlns:xlink="http://www.w3.org/1999/xlink" width="1000" height="1000"><g><g transform="matrix(6.8493150684931505,0,0,6.8493150684931505,0,0)"><svg xmlns="http://www.w3.org/2000/svg" version="1.1" xmlns:xlink="http://www.w3.org/1999/xlink" width="146" height="146"><svg width="146" height="146" viewBox="0 0 146 146" fill="none" xmlns="http://www.w3.org/2000/svg">
<rect width="146" height="146" rx="8" fill="#F1E2B7"></rect>
<path d="M91.5578 95.2542C90.2112 97.3877 88.7174 99.0236 87.0795 100.166C85.4396 101.309 83.3502 102.092 80.8143 102.51C78.276 102.929 75.0001 103.137 70.9878 103.137H57.5965L63.6642 71.7139H63.6744L64.5345 67.2593H64.5244L70.1289 38.2356H85.3875C89.6776 38.2356 92.8819 38.5771 94.9997 39.2645C97.1138 39.9496 98.488 41.2641 99.1167 43.2057C99.7433 45.1473 99.9339 48.024 99.6829 51.8336H103.004L106 33.0938H51.5021L50.8402 36.5217C53.6766 36.5217 55.7537 36.7895 57.0703 37.3206C58.3845 37.854 59.155 38.8828 59.3797 40.4071C59.6044 41.9314 59.4377 44.1386 58.8787 47.0331L49.6775 94.6828C49.104 97.6532 48.4178 99.8626 47.6195 101.309C46.8208 102.757 45.6715 103.69 44.1733 104.11C42.6731 104.529 40.5042 104.737 37.6678 104.737L37.0059 108.165H92.4384L99.4477 86.9119H96.1268C94.4268 90.3398 92.9045 93.1206 91.5578 95.2542Z" fill="#020F15"></path>
<path d="M88.7219 58.3301C85.3989 68.2476 83.7866 70.6712 97.2673 70.7628L101.128 70.7736L100.863 73.073C82.7555 73.3377 81.1561 74.273 77.0251 85.9828H75.8417C78.1037 80.6589 79.343 77.0718 78.1978 75.2889C77.0565 73.4834 73.2441 73.2997 67.7168 73.4369L68.2371 71.4502C80.2667 71.1757 82.1672 71.0834 87.5546 58.2627L88.7219 58.3301Z" fill="#020F15"></path>
</svg></svg></g></g></svg></g></svg>